<svg width="386" height="813" viewBox="0 0 386 813" fill="none" xmlns="http://www.w3.org/2000/svg">
<rect width="386" height="813" rx="20" fill="#F5F6FB"/>
<line x1="16.9854" y1="78.0602" x2="370.011" y2="78.0602" stroke="#5271FF" stroke-width="2"/>
<path d="M184.268 28.5C184.268 28.8268 184.398 29.1402 184.629 29.3713C184.86 29.6023 185.173 29.7321 185.5 29.7321C185.827 29.7321 186.14 29.6023 186.371 29.3713C186.602 29.1402 186.732 28.8268 186.732 28.5C186.732 28.1732 186.602 27.8598 186.371 27.6287C186.14 27.3977 185.827 27.2679 185.5 27.2679C185.173 27.2679 184.86 27.3977 184.629 27.6287C184.398 27.8598 184.268 28.1732 184.268 28.5ZM189.402 28.5C189.402 28.8268 189.532 29.1402 189.763 29.3713C189.994 29.6023 190.307 29.7321 190.634 29.7321C190.961 29.7321 191.274 29.6023 191.505 29.3713C191.736 29.1402 191.866 28.8268 191.866 28.5C191.866 28.1732 191.736 27.8598 191.505 27.6287C191.274 27.3977 190.961 27.2679 190.634 27.2679C190.307 27.2679 189.994 27.3977 189.763 27.6287C189.532 27.8598 189.402 28.1732 189.402 28.5ZM179.134 28.5C179.134 28.8268 179.264 29.1402 179.495 29.3713C179.726 29.6023 180.039 29.7321 180.366 29.7321C180.693 29.7321 181.006 29.6023 181.237 29.3713C181.468 29.1402 181.598 28.8268 181.598 28.5C181.598 28.1732 181.468 27.8598 181.237 27.6287C181.006 27.3977 180.693 27.2679 180.366 27.2679C180.039 27.2679 179.726 27.3977 179.495 27.6287C179.264 27.8598 179.134 28.1732 179.134 28.5ZM196.107 24.0438C195.526 22.6653 194.695 21.428 193.635 20.3653C192.582 19.3087 191.332 18.4689 189.956 17.8933C188.544 17.3003 187.045 17 185.5 17H185.449C183.893 17.0077 182.386 17.3157 180.969 17.9215C179.605 18.503 178.367 19.3444 177.324 20.3987C176.274 21.4588 175.45 22.691 174.881 24.0643C174.29 25.4864 173.992 26.9983 174 28.5539C174.009 30.3366 174.431 32.093 175.232 33.6853V37.5871C175.232 37.9002 175.357 38.2006 175.578 38.422C175.8 38.6435 176.1 38.7679 176.413 38.7679H180.317C181.91 39.5695 183.666 39.9913 185.449 40H185.503C187.04 40 188.532 39.7022 189.936 39.1195C191.305 38.5508 192.55 37.7208 193.601 36.6758C194.661 35.6259 195.496 34.3989 196.078 33.0307C196.684 31.6137 196.992 30.1069 197 28.5513C197.008 26.9881 196.705 25.471 196.107 24.0438ZM192.228 35.2871C190.429 37.0685 188.041 38.0491 185.5 38.0491H185.456C183.909 38.0414 182.371 37.6564 181.013 36.9325L180.797 36.817H177.183V33.2027L177.068 32.9871C176.344 31.6291 175.959 30.0915 175.951 28.5436C175.941 25.9844 176.919 23.5817 178.713 21.772C180.505 19.9623 182.9 18.9612 185.459 18.9509H185.503C186.786 18.9509 188.031 19.1999 189.204 19.6927C190.349 20.1728 191.376 20.8633 192.259 21.7463C193.139 22.6268 193.832 23.6561 194.312 24.801C194.81 25.9869 195.059 27.2448 195.054 28.5436C195.039 31.1003 194.035 33.4953 192.228 35.2871Z" fill="#5271FF"/>
<path d="M183.528 48.0762V57.7441H181.902V52.8955H179.559V51.5771H181.902V48.0762H183.528ZM183.865 59.7217V61.04H174.842V56.8945H176.468V59.7217H183.865ZM177.303 50.7129C177.303 52.3096 178.372 53.9502 180.423 54.624L179.603 55.9277C178.123 55.4224 177.076 54.4189 176.497 53.1592C175.911 54.5581 174.805 55.6641 173.245 56.2061L172.41 54.8877C174.52 54.1992 175.647 52.4561 175.647 50.6982V50.3467H172.894V49.0283H180.042V50.3467H177.303V50.7129ZM189.446 52.1045C189.446 54.1553 190.296 56.2207 192.142 57.2168L191.233 58.418C190.003 57.7661 189.168 56.6016 188.699 55.21C188.23 56.7114 187.396 57.9932 186.15 58.7256L185.198 57.4951C187.073 56.4111 187.908 54.1992 187.908 52.1045V51.6943H185.652V50.376H187.908V48.5303H189.446V50.376H191.658V51.6943H189.446V52.1045ZM196.8 48.0615V61.3037H195.247V48.0615H196.8ZM194.104 48.3105V60.6592H192.566V54.4922H190.838V53.1445H192.566V48.3105H194.104Z" fill="#5271FF"/>
</svg>
