<svg width="63" height="63" viewBox="0 0 63 63" fill="none" xmlns="http://www.w3.org/2000/svg">
<path fill-rule="evenodd" clip-rule="evenodd" d="M31.5 5.25005C34.9472 5.25003 38.3606 5.92899 41.5454 7.24817C44.7302 8.56735 47.624 10.5009 50.0616 12.9384C52.4991 15.376 54.4327 18.2698 55.7519 21.4546C57.0711 24.6394 57.75 28.0528 57.75 31.5C57.75 45.9975 45.9975 57.7501 31.5 57.7501C17.0026 57.7501 5.25 45.9975 5.25 31.5C5.25 17.0026 17.0026 5.25005 31.5 5.25005ZM34.125 34.1251H28.875C22.3763 34.1251 16.797 38.061 14.3905 43.6794C18.1981 49.0186 24.4425 52.5 31.5 52.5C38.5574 52.5 44.8018 49.0186 48.6095 43.6791C46.2031 38.061 40.6238 34.1251 34.125 34.1251ZM31.5 13.125C27.1507 13.125 23.625 16.6508 23.625 21C23.625 25.3493 27.1507 28.875 31.5 28.875C35.8492 28.875 39.375 25.3493 39.375 21C39.375 16.6508 35.8493 13.125 31.5 13.125Z" fill="black"/>
</svg>
