<svg width="35" height="35" viewBox="0 0 35 35" fill="none" xmlns="http://www.w3.org/2000/svg">
<path d="M14.5835 20.4167L30.6252 4.375M14.5835 20.4167L19.6877 30.625C19.7516 30.7646 19.8544 30.8829 19.9836 30.9659C20.1129 31.0488 20.2632 31.0929 20.4168 31.0929C20.5704 31.0929 20.7208 31.0488 20.85 30.9659C20.9793 30.8829 21.082 30.7646 21.146 30.625L30.6252 4.375M14.5835 20.4167L4.37516 15.3125C4.23554 15.2485 4.11722 15.1458 4.03427 15.0165C3.95132 14.8873 3.90723 14.7369 3.90723 14.5833C3.90723 14.4297 3.95132 14.2794 4.03427 14.1501C4.11722 14.0209 4.23554 13.9182 4.37516 13.8542L30.6252 4.375" stroke="#B5B5B5" stroke-width="2" stroke-linecap="round" stroke-linejoin="round"/>
</svg>
