<svg width="35" height="35" viewBox="0 0 35 35" fill="none" xmlns="http://www.w3.org/2000/svg">
<path d="M2.91699 8.75002C2.91699 7.20292 3.53157 5.71919 4.62554 4.62523C5.7195 3.53127 7.20323 2.91669 8.75033 2.91669H26.2503C27.7974 2.91669 29.2812 3.53127 30.3751 4.62523C31.4691 5.71919 32.0837 7.20292 32.0837 8.75002V26.25C32.0837 27.7971 31.4691 29.2808 30.3751 30.3748C29.2812 31.4688 27.7974 32.0834 26.2503 32.0834H8.75033C7.20323 32.0834 5.7195 31.4688 4.62554 30.3748C3.53157 29.2808 2.91699 27.7971 2.91699 26.25V8.75002Z" stroke="#B5B5B5" stroke-width="2" stroke-linecap="round" stroke-linejoin="round"/>
<path d="M12.3958 16.0417C14.4094 16.0417 16.0417 14.4094 16.0417 12.3958C16.0417 10.3823 14.4094 8.75 12.3958 8.75C10.3823 8.75 8.75 10.3823 8.75 12.3958C8.75 14.4094 10.3823 16.0417 12.3958 16.0417Z" stroke="#B5B5B5" stroke-width="2" stroke-linecap="round" stroke-linejoin="round"/>
<path d="M21.1837 18.4057L8.75 32.0834H26.444C27.9396 32.0834 29.374 31.4892 30.4316 30.4316C31.4892 29.374 32.0833 27.9396 32.0833 26.444V26.25C32.0833 25.5704 31.8281 25.3094 31.3687 24.8063L25.4917 18.3969C25.2178 18.0981 24.8846 17.8597 24.5134 17.6969C24.1422 17.534 23.7411 17.4504 23.3358 17.4512C22.9304 17.452 22.5297 17.5373 22.1592 17.7016C21.7887 17.866 21.4564 18.1058 21.1837 18.4057Z" stroke="#B5B5B5" stroke-width="2" stroke-linecap="round" stroke-linejoin="round"/>
</svg>
