<svg width="239" height="80" viewBox="0 0 239 80" fill="none" xmlns="http://www.w3.org/2000/svg">
<rect width="239" height="80" rx="40" fill="white"/>
<rect x="111" y="9" width="119" height="62" rx="31" fill="#5271FF"/>
<path d="M146.229 44V31.9805H148.055V42.4229H153.483V44H146.229ZM159.028 44.1826C156.472 44.1826 154.812 42.3232 154.812 39.5342C154.812 36.7285 156.472 34.8691 159.028 34.8691C161.568 34.8691 163.229 36.7285 163.229 39.5342C163.229 42.3232 161.568 44.1826 159.028 44.1826ZM159.028 42.7051C160.655 42.7051 161.436 41.2607 161.436 39.5342C161.436 37.8076 160.655 36.3301 159.028 36.3301C157.368 36.3301 156.588 37.8076 156.588 39.5342C156.588 41.2607 157.368 42.7051 159.028 42.7051ZM168.757 47.5693C166.482 47.5693 164.988 46.5566 164.822 44.8799H166.632C166.798 45.7266 167.595 46.1416 168.773 46.1416C170.185 46.1416 171.081 45.5439 171.081 44.1328V42.3564H170.965C170.649 42.9375 170.002 43.8672 168.342 43.8672C166.217 43.8672 164.573 42.2734 164.573 39.4014C164.573 36.5293 166.184 34.8691 168.358 34.8691C170.035 34.8691 170.649 35.8818 170.981 36.4463H171.098V34.9854H172.824V44.1992C172.824 46.5068 171.081 47.5693 168.757 47.5693ZM168.74 42.4062C170.251 42.4062 171.098 41.2939 171.098 39.4346C171.098 37.6084 170.268 36.3799 168.74 36.3799C167.163 36.3799 166.383 37.708 166.383 39.4346C166.383 41.1943 167.196 42.4062 168.74 42.4062ZM174.982 44V34.9854H176.759V44H174.982ZM175.879 33.5908C175.265 33.5908 174.75 33.126 174.75 32.5449C174.75 31.9639 175.265 31.499 175.879 31.499C176.477 31.499 176.991 31.9639 176.991 32.5449C176.991 33.126 176.477 33.5908 175.879 33.5908ZM180.693 38.6543V44H178.917V34.9854H180.627V36.4629H180.727C181.158 35.5 182.038 34.8691 183.383 34.8691C185.242 34.8691 186.454 36.0312 186.454 38.2725V44H184.694V38.4883C184.694 37.1768 183.98 36.3965 182.785 36.3965C181.573 36.3965 180.693 37.21 180.693 38.6543Z" fill="white"/>
<path d="M38.7695 35.1514C38.6533 34.0391 37.6738 33.3916 36.2959 33.3916C34.8184 33.3916 33.8887 34.1387 33.8887 35.168C33.8887 36.3135 35.1338 36.7451 36.0801 36.9775L37.2422 37.293C38.7861 37.6582 40.6953 38.5049 40.7119 40.6797C40.6953 42.7051 39.085 44.1992 36.2461 44.1992C33.5566 44.1992 31.8633 42.8545 31.7471 40.6631H33.5732C33.6895 41.9746 34.835 42.6055 36.2461 42.6055C37.7734 42.6055 38.8857 41.8252 38.9023 40.6465C38.8857 39.6006 37.9062 39.1689 36.6279 38.8369L35.2002 38.4551C33.2744 37.9238 32.0625 36.9443 32.0625 35.2676C32.0625 33.1924 33.9219 31.8145 36.3457 31.8145C38.7861 31.8145 40.4961 33.209 40.5459 35.1514H38.7695ZM42.5215 44V34.9854H44.2979V44H42.5215ZM43.418 33.5908C42.8037 33.5908 42.2891 33.126 42.2891 32.5449C42.2891 31.9639 42.8037 31.499 43.418 31.499C44.0156 31.499 44.5303 31.9639 44.5303 32.5449C44.5303 33.126 44.0156 33.5908 43.418 33.5908ZM50.2412 47.5693C47.9668 47.5693 46.4727 46.5566 46.3066 44.8799H48.1162C48.2822 45.7266 49.0791 46.1416 50.2578 46.1416C51.6689 46.1416 52.5654 45.5439 52.5654 44.1328V42.3564H52.4492C52.1338 42.9375 51.4863 43.8672 49.8262 43.8672C47.7012 43.8672 46.0576 42.2734 46.0576 39.4014C46.0576 36.5293 47.668 34.8691 49.8428 34.8691C51.5195 34.8691 52.1338 35.8818 52.4658 36.4463H52.582V34.9854H54.3086V44.1992C54.3086 46.5068 52.5654 47.5693 50.2412 47.5693ZM50.2246 42.4062C51.7354 42.4062 52.582 41.2939 52.582 39.4346C52.582 37.6084 51.752 36.3799 50.2246 36.3799C48.6475 36.3799 47.8672 37.708 47.8672 39.4346C47.8672 41.1943 48.6807 42.4062 50.2246 42.4062ZM58.2432 38.6543V44H56.4668V34.9854H58.1768V36.4629H58.2764C58.708 35.5 59.5879 34.8691 60.9326 34.8691C62.792 34.8691 64.0039 36.0312 64.0039 38.2725V44H62.2441V38.4883C62.2441 37.1768 61.5303 36.3965 60.335 36.3965C59.123 36.3965 58.2432 37.21 58.2432 38.6543ZM74.0312 31.9805H75.8574V39.8828C75.8574 42.4062 73.9648 44.1992 71.0928 44.1992C68.1875 44.1992 66.3115 42.4062 66.3115 39.8828V31.9805H68.1377V39.7334C68.1377 41.3604 69.2666 42.5391 71.0928 42.5391C72.9023 42.5391 74.0312 41.3604 74.0312 39.7334V31.9805ZM78.165 47.3867V34.9854H79.8916V36.4463H80.041C80.3564 35.8818 80.9707 34.8691 82.6309 34.8691C84.8057 34.8691 86.416 36.5791 86.416 39.5176C86.416 42.4229 84.8389 44.1826 82.6475 44.1826C81.0039 44.1826 80.3564 43.1865 80.041 42.5889H79.9414V47.3867H78.165ZM79.9082 39.4844C79.9082 41.377 80.7383 42.6719 82.249 42.6719C83.8096 42.6719 84.623 41.2939 84.623 39.4844C84.623 37.708 83.8262 36.3799 82.249 36.3799C80.7217 36.3799 79.9082 37.6084 79.9082 39.4844Z" fill="black"/>
</svg>
