<svg width="291" height="97" viewBox="0 0 291 97" fill="none" xmlns="http://www.w3.org/2000/svg">
<rect width="291" height="97" rx="48.5" fill="black"/>
<rect x="199" y="9" width="79" height="79" rx="39.5" fill="#5271FF"/>
<path d="M52.7451 45.915C52.0859 43.8154 50.499 42.5459 48.1553 42.5459C45.1768 42.5459 42.8818 44.8896 42.8818 49.1621C42.8818 53.4346 45.1523 55.7783 48.2773 55.7783C51.0972 55.7783 52.9648 53.9961 53.0137 51.1641H48.668V48.9424H55.626V50.9443C55.626 55.4121 52.5498 58.2441 48.2529 58.2441C43.4678 58.2441 40.2207 54.7529 40.2207 49.1621C40.2207 43.5225 43.5654 40.0801 48.1309 40.0801C51.9639 40.0801 54.8936 42.4727 55.5039 45.915H52.7451ZM64.2197 58.2686C60.3135 58.2686 57.9209 55.583 57.9209 51.457C57.9209 47.3799 60.3623 44.5723 64.0488 44.5723C67.0762 44.5723 69.9326 46.4521 69.9326 51.2373V52.165H60.5088C60.582 54.6797 62.0591 56.1201 64.2441 56.1201C65.7334 56.1201 66.6855 55.4854 67.125 54.6797H69.7617C69.1758 56.8281 67.125 58.2686 64.2197 58.2686ZM60.5332 50.2119H67.3691C67.3691 48.1855 66.0752 46.7207 64.0732 46.7207C61.9858 46.7207 60.6309 48.332 60.5332 50.2119ZM78.7217 44.7432V46.8184H76.0117V54.0938C76.0117 55.583 76.7686 55.8516 77.5986 55.876C77.9648 55.876 78.5508 55.8271 78.917 55.8027V58.0732C78.5508 58.1221 77.9893 58.1709 77.2812 58.1709C75.2305 58.1709 73.3994 57.0479 73.4238 54.6309V46.8184H71.4707V44.7432H73.4238V41.5693H76.0117V44.7432H78.7217ZM97.2031 44.9873C97.0322 43.3516 95.5918 42.3994 93.5654 42.3994C91.3926 42.3994 90.0254 43.498 90.0254 45.0117C90.0254 46.6963 91.8564 47.3311 93.248 47.6729L94.957 48.1367C97.2275 48.6738 100.035 49.9189 100.06 53.1172C100.035 56.0957 97.667 58.293 93.4922 58.293C89.5371 58.293 87.0469 56.3154 86.876 53.0928H89.5615C89.7324 55.0215 91.417 55.9492 93.4922 55.9492C95.7383 55.9492 97.374 54.8018 97.3984 53.0684C97.374 51.5303 95.9336 50.8955 94.0537 50.4072L91.9541 49.8457C89.1221 49.0645 87.3398 47.624 87.3398 45.1582C87.3398 42.1064 90.0742 40.0801 93.6387 40.0801C97.2275 40.0801 99.7422 42.1309 99.8154 44.9873H97.2031ZM108.922 44.7432V46.8184H106.212V54.0938C106.212 55.583 106.969 55.8516 107.799 55.876C108.165 55.876 108.751 55.8271 109.117 55.8027V58.0732C108.751 58.1221 108.189 58.1709 107.481 58.1709C105.431 58.1709 103.6 57.0479 103.624 54.6309V46.8184H101.671V44.7432H103.624V41.5693H106.212V44.7432H108.922ZM110.851 54.2646C110.851 51.2373 113.414 50.4561 115.807 50.2852C116.686 50.2241 118.675 50.1143 119.298 50.0898L119.273 49.04C119.273 47.5508 118.37 46.6719 116.588 46.6719C115.05 46.6719 114.122 47.3799 113.854 48.3564H111.266C111.51 46.1592 113.561 44.5723 116.686 44.5723C118.785 44.5723 121.886 45.3535 121.886 49.1865V58H119.347V56.1934H119.249C118.736 57.1943 117.516 58.293 115.318 58.293C112.804 58.293 110.851 56.8525 110.851 54.2646ZM113.39 54.2891C113.39 55.5586 114.439 56.2178 115.904 56.2178C118.028 56.2178 119.298 54.8018 119.298 53.2148V51.9941L116.173 52.2139C114.464 52.3359 113.39 52.9707 113.39 54.2891ZM125.035 58V44.7432H127.55V46.8428H127.696C128.185 45.4268 129.503 44.5479 131.065 44.5479C131.383 44.5479 131.896 44.5723 132.164 44.5967V47.0869C131.944 47.0381 131.334 46.9404 130.797 46.9404C128.99 46.9404 127.647 48.1855 127.647 49.9189V58H125.035ZM141.1 44.7432V46.8184H138.39V54.0938C138.39 55.583 139.146 55.8516 139.977 55.876C140.343 55.876 140.929 55.8271 141.295 55.8027V58.0732C140.929 58.1221 140.367 58.1709 139.659 58.1709C137.608 58.1709 135.777 57.0479 135.802 54.6309V46.8184H133.849V44.7432H135.802V41.5693H138.39V44.7432H141.1ZM149.205 58.2686C145.299 58.2686 142.906 55.583 142.906 51.457C142.906 47.3799 145.348 44.5723 149.034 44.5723C152.062 44.5723 154.918 46.4521 154.918 51.2373V52.165H145.494C145.567 54.6797 147.044 56.1201 149.229 56.1201C150.719 56.1201 151.671 55.4854 152.11 54.6797H154.747C154.161 56.8281 152.11 58.2686 149.205 58.2686ZM145.519 50.2119H152.354C152.354 48.1855 151.061 46.7207 149.059 46.7207C146.971 46.7207 145.616 48.332 145.519 50.2119ZM162.462 58.2686C159.264 58.2686 156.92 55.6807 156.92 51.4082C156.92 47.0869 159.288 44.5723 162.486 44.5723C164.952 44.5723 165.855 46.0615 166.319 46.8916H166.441V40.3242H169.054V58H166.515V55.9248H166.319C165.831 56.8037 164.879 58.2686 162.462 58.2686ZM163.048 56.0469C165.27 56.0469 166.515 54.1426 166.515 51.3594C166.515 48.6006 165.294 46.7939 163.048 46.7939C160.729 46.7939 159.581 48.7471 159.581 51.3594C159.581 54.0205 160.777 56.0469 163.048 56.0469Z" fill="white"/>
<path d="M250.373 41.4281C250.37 41.0036 250.199 40.5977 249.897 40.2996C249.594 40.0016 249.186 39.8357 248.762 39.8385L235.956 39.9257C235.743 39.9234 235.532 39.9635 235.335 40.0436C235.139 40.1238 234.96 40.2423 234.809 40.3923C234.659 40.5423 234.539 40.7208 234.458 40.9174C234.378 41.114 234.337 41.3247 234.338 41.5372C234.34 41.7498 234.383 41.9599 234.467 42.1554C234.55 42.3508 234.672 42.5277 234.825 42.6756C234.977 42.8236 235.158 42.9397 235.356 43.0171C235.554 43.0945 235.765 43.1317 235.978 43.1266L244.919 43.0657L230.032 58.1571C229.734 58.4594 229.568 58.8677 229.571 59.2922C229.574 59.7167 229.745 60.1227 230.047 60.4209C230.35 60.719 230.758 60.8849 231.182 60.882C231.607 60.8791 232.013 60.7077 232.311 60.4055L247.199 45.3141L247.259 54.2559C247.27 54.6755 247.444 55.0743 247.745 55.3665C248.047 55.6586 248.451 55.8207 248.871 55.8179C249.29 55.815 249.692 55.6474 249.989 55.3512C250.287 55.0549 250.456 54.6538 250.46 54.2341L250.373 41.4281Z" fill="black"/>
</svg>
